<?xml version="1.0" encoding="utf-8" standalone="no"?>
<!DOCTYPE svg PUBLIC "-//W3C//DTD SVG 1.1//EN"
  "http://www.w3.org/Graphics/SVG/1.1/DTD/svg11.dtd">
<svg xmlns:xlink="http://www.w3.org/1999/xlink" width="719.119322pt" height="385.92pt" viewBox="0 0 719.119322 385.92" xmlns="http://www.w3.org/2000/svg" version="1.1">
 <metadata>
  <rdf:RDF xmlns:dc="http://purl.org/dc/elements/1.1/" xmlns:cc="http://creativecommons.org/ns#" xmlns:rdf="http://www.w3.org/1999/02/22-rdf-syntax-ns#">
   <cc:Work>
    <dc:type rdf:resource="http://purl.org/dc/dcmitype/StillImage"/>
    <dc:date>2026-05-01T12:15:50.927789</dc:date>
    <dc:format>image/svg+xml</dc:format>
    <dc:creator>
     <cc:Agent>
      <dc:title>Matplotlib v3.10.6, https://matplotlib.org/</dc:title>
     </cc:Agent>
    </dc:creator>
   </cc:Work>
  </rdf:RDF>
 </metadata>
 <defs>
  <style type="text/css">*{stroke-linejoin: round; stroke-linecap: butt}</style>
 </defs>
 <g id="figure_1">
  <g id="patch_1">
   <path d="M -0 385.92 
L 719.119322 385.92 
L 719.119322 0 
L -0 0 
z
" style="fill: #ffffff"/>
  </g>
  <g id="axes_1">
   <g id="patch_2">
    <path d="M 50.556042 135.74592 
L 173.631258 135.74592 
Q 177.127713 135.74592 177.127713 132.03072 
L 177.127713 60.69888 
Q 177.127713 56.98368 173.631258 56.98368 
L 50.556042 56.98368 
Q 47.059587 56.98368 47.059587 60.69888 
L 47.059587 132.03072 
Q 47.059587 135.74592 50.556042 135.74592 
z
" clip-path="url(#pcc96fa3744)" style="fill: #d7e6f5; stroke: #1f2937; stroke-width: 0.9; stroke-linejoin: miter"/>
   </g>
   <g id="patch_3">
    <path d="M 225.378792 135.74592 
L 348.454008 135.74592 
Q 351.950463 135.74592 351.950463 132.03072 
L 351.950463 60.69888 
Q 351.950463 56.98368 348.454008 56.98368 
L 225.378792 56.98368 
Q 221.882337 56.98368 221.882337 60.69888 
L 221.882337 132.03072 
Q 221.882337 135.74592 225.378792 135.74592 
z
" clip-path="url(#pcc96fa3744)" style="fill: #d8efea; stroke: #1f2937; stroke-width: 0.9; stroke-linejoin: miter"/>
   </g>
   <g id="patch_4">
    <path d="M 400.201542 135.74592 
L 523.276758 135.74592 
Q 526.773213 135.74592 526.773213 132.03072 
L 526.773213 60.69888 
Q 526.773213 56.98368 523.276758 56.98368 
L 400.201542 56.98368 
Q 396.705087 56.98368 396.705087 60.69888 
L 396.705087 132.03072 
Q 396.705087 135.74592 400.201542 135.74592 
z
" clip-path="url(#pcc96fa3744)" style="fill: #f7e7ad; stroke: #1f2937; stroke-width: 0.9; stroke-linejoin: miter"/>
   </g>
   <g id="patch_5">
    <path d="M 575.024292 135.74592 
L 698.099508 135.74592 
Q 701.595963 135.74592 701.595963 132.03072 
L 701.595963 60.69888 
Q 701.595963 56.98368 698.099508 56.98368 
L 575.024292 56.98368 
Q 571.527837 56.98368 571.527837 60.69888 
L 571.527837 132.03072 
Q 571.527837 135.74592 575.024292 135.74592 
z
" clip-path="url(#pcc96fa3744)" style="fill: #f3d3d5; stroke: #1f2937; stroke-width: 0.9; stroke-linejoin: miter"/>
   </g>
   <g id="patch_6">
    <path d="M 91.11492 278.4096 
L 622.57608 278.4096 
L 622.57608 217.48032 
L 91.11492 217.48032 
z
" clip-path="url(#pcc96fa3744)" style="fill: #f9fafb; stroke: #374151; stroke-width: 0.9; stroke-linejoin: miter"/>
   </g>
   <g id="text_1">
    <text style="font-weight: 700; font-size: 9px; font-family: 'DejaVu Sans'; text-anchor: middle" x="112.09365" y="81.723161" transform="rotate(-0 112.09365 81.723161)">Spatial discovery</text>
   </g>
   <g id="text_2">
    <text style="font-size: 7.3px; font-family: 'DejaVu Sans'" transform="translate(90.708072 101.627684)">GSE269875</text>
    <text style="font-size: 7.3px; font-family: 'DejaVu Sans'" transform="translate(86.76322 109.524744)">MM vs control</text>
    <text style="font-size: 7.3px; font-family: 'DejaVu Sans'" transform="translate(63.633056 117.421804)">plasma-secretory program</text>
   </g>
   <g id="text_3">
    <text style="font-weight: 700; font-size: 9px; font-family: 'DejaVu Sans'; text-anchor: middle" x="286.9164" y="81.758317" transform="rotate(-0 286.9164 81.758317)">scRNA localization</text>
   </g>
   <g id="text_4">
    <text style="font-size: 7.3px; font-family: 'DejaVu Sans'" transform="translate(265.530822 101.627684)">GSE271107</text>
    <text style="font-size: 7.3px; font-family: 'DejaVu Sans'" transform="translate(244.234212 109.524744)">plasma-cell localization</text>
    <text style="font-size: 7.3px; font-family: 'DejaVu Sans'" transform="translate(256.600869 117.421804)">TXNDC5 support</text>
   </g>
   <g id="text_5">
    <text style="font-weight: 700; font-size: 9px; font-family: 'DejaVu Sans'; text-anchor: middle" x="461.73915" y="81.758317" transform="rotate(-0 461.73915 81.758317)">Bulk association</text>
   </g>
   <g id="text_6">
    <text style="font-size: 7.3px; font-family: 'DejaVu Sans'" transform="translate(422.385306 101.627684)">GSE24080 / GSE2658</text>
    <text style="font-size: 7.3px; font-family: 'DejaVu Sans'" transform="translate(424.032939 109.524744)">subtype-risk support</text>
    <text style="font-size: 7.3px; font-family: 'DejaVu Sans'" transform="translate(420.091509 117.421804)">POU2AF1/XBP1/JCHAIN</text>
   </g>
   <g id="text_7">
    <text style="font-weight: 700; font-size: 9px; font-family: 'DejaVu Sans'; text-anchor: middle" x="636.5619" y="81.758317" transform="rotate(-0 636.5619 81.758317)">Clinical/molecular association</text>
   </g>
   <g id="text_8">
    <text style="font-size: 7.3px; font-family: 'DejaVu Sans'" transform="translate(587.480806 101.627684)">CoMMpass/GDC + NG2024</text>
    <text style="font-size: 7.3px; font-family: 'DejaVu Sans'" transform="translate(596.814541 109.524744)">762 baseline samples</text>
    <text style="font-size: 7.3px; font-family: 'DejaVu Sans'" transform="translate(585.806369 117.421804)">OS, ISS, 1q21, RNA subtype</text>
   </g>
   <g id="patch_7">
    <path d="M 177.025192 96.3648 
Q 194.258685 96.3648 210.262341 96.3648 
" style="fill: none; stroke: #111827; stroke-width: 1.1; stroke-linecap: round"/>
    <path d="M 207.062341 94.7648 
L 210.262341 96.3648 
L 207.062341 97.9648 
" style="fill: none; stroke: #111827; stroke-width: 1.1; stroke-linecap: round"/>
   </g>
   <g id="patch_8">
    <path d="M 351.847942 96.3648 
Q 369.081435 96.3648 385.085091 96.3648 
" style="fill: none; stroke: #111827; stroke-width: 1.1; stroke-linecap: round"/>
    <path d="M 381.885091 94.7648 
L 385.085091 96.3648 
L 381.885091 97.9648 
" style="fill: none; stroke: #111827; stroke-width: 1.1; stroke-linecap: round"/>
   </g>
   <g id="patch_9">
    <path d="M 526.670692 96.3648 
Q 543.904185 96.3648 559.907841 96.3648 
" style="fill: none; stroke: #111827; stroke-width: 1.1; stroke-linecap: round"/>
    <path d="M 556.707841 94.7648 
L 559.907841 96.3648 
L 556.707841 97.9648 
" style="fill: none; stroke: #111827; stroke-width: 1.1; stroke-linecap: round"/>
   </g>
   <g id="text_9">
    <text style="font-size: 9px; font-family: 'DejaVu Sans'" transform="translate(301.729641 239.199421)">Defensible current claim</text>
    <text style="font-size: 9px; font-family: 'DejaVu Sans'" transform="translate(189.383625 250.303241)">MM bone marrow plasma_secretory spatial program is single-cell localized</text>
    <text style="font-size: 9px; font-family: 'DejaVu Sans'" transform="translate(181.094484 261.657374)">and associated with OS / ISS / public molecular-risk annotations in CoMMpass.</text>
   </g>
   <g id="text_10">
    <text style="font-size: 7.5px; font-family: 'DejaVu Sans'; fill: #374151" transform="translate(239.869523 323.091472)">Claim boundary: R-ISS, PFS and treatment-response validation</text>
    <text style="font-size: 7.5px; font-family: 'DejaVu Sans'; fill: #374151" transform="translate(189.006047 331.489831)">require fuller MMRF/CoMMpass clinical files and are not claimed from the GDC open slice.</text>
   </g>
   <g id="text_11">
    <text style="font-weight: 700; font-size: 11px; font-family: 'DejaVu Sans'; text-anchor: start" x="14.19291" y="34.182406" transform="rotate(-0 14.19291 34.182406)">Fig. 1 | Cross-cohort study design and evidence chain</text>
   </g>
  </g>
 </g>
 <defs>
  <clipPath id="pcc96fa3744">
   <rect x="7.2" y="7.2" width="699.291" height="371.52"/>
  </clipPath>
 </defs>
</svg>
