<?xml version="1.0" encoding="utf-8" standalone="no"?>
<!DOCTYPE svg PUBLIC "-//W3C//DTD SVG 1.1//EN"
  "http://www.w3.org/Graphics/SVG/1.1/DTD/svg11.dtd">
<svg xmlns:xlink="http://www.w3.org/1999/xlink" width="718.778728pt" height="385.92pt" viewBox="0 0 718.778728 385.92" xmlns="http://www.w3.org/2000/svg" version="1.1">
 <metadata>
  <rdf:RDF xmlns:dc="http://purl.org/dc/elements/1.1/" xmlns:cc="http://creativecommons.org/ns#" xmlns:rdf="http://www.w3.org/1999/02/22-rdf-syntax-ns#">
   <cc:Work>
    <dc:type rdf:resource="http://purl.org/dc/dcmitype/StillImage"/>
    <dc:date>2026-04-30T22:29:27.659061</dc:date>
    <dc:format>image/svg+xml</dc:format>
    <dc:creator>
     <cc:Agent>
      <dc:title>Matplotlib v3.10.6, https://matplotlib.org/</dc:title>
     </cc:Agent>
    </dc:creator>
   </cc:Work>
  </rdf:RDF>
 </metadata>
 <defs>
  <style type="text/css">*{stroke-linejoin: round; stroke-linecap: butt}</style>
 </defs>
 <g id="figure_1">
  <g id="patch_1">
   <path d="M -0 385.92 
L 718.778728 385.92 
L 718.778728 0 
L -0 0 
z
" style="fill: #ffffff"/>
  </g>
  <g id="axes_1">
   <g id="patch_2">
    <path d="M 50.768082 135.74592 
L 174.445218 135.74592 
Q 177.958773 135.74592 177.958773 132.03072 
L 177.958773 60.69888 
Q 177.958773 56.98368 174.445218 56.98368 
L 50.768082 56.98368 
Q 47.254527 56.98368 47.254527 60.69888 
L 47.254527 132.03072 
Q 47.254527 135.74592 50.768082 135.74592 
z
" clip-path="url(#pa9228b4508)" style="fill: #d7e6f5; stroke: #1f2937; stroke-width: 0.9; stroke-linejoin: miter"/>
   </g>
   <g id="patch_3">
    <path d="M 226.445832 135.74592 
L 350.122968 135.74592 
Q 353.636523 135.74592 353.636523 132.03072 
L 353.636523 60.69888 
Q 353.636523 56.98368 350.122968 56.98368 
L 226.445832 56.98368 
Q 222.932277 56.98368 222.932277 60.69888 
L 222.932277 132.03072 
Q 222.932277 135.74592 226.445832 135.74592 
z
" clip-path="url(#pa9228b4508)" style="fill: #d8efea; stroke: #1f2937; stroke-width: 0.9; stroke-linejoin: miter"/>
   </g>
   <g id="patch_4">
    <path d="M 402.123582 135.74592 
L 525.800718 135.74592 
Q 529.314273 135.74592 529.314273 132.03072 
L 529.314273 60.69888 
Q 529.314273 56.98368 525.800718 56.98368 
L 402.123582 56.98368 
Q 398.610027 56.98368 398.610027 60.69888 
L 398.610027 132.03072 
Q 398.610027 135.74592 402.123582 135.74592 
z
" clip-path="url(#pa9228b4508)" style="fill: #f7e7ad; stroke: #1f2937; stroke-width: 0.9; stroke-linejoin: miter"/>
   </g>
   <g id="patch_5">
    <path d="M 577.801332 135.74592 
L 701.478468 135.74592 
Q 704.992023 135.74592 704.992023 132.03072 
L 704.992023 60.69888 
Q 704.992023 56.98368 701.478468 56.98368 
L 577.801332 56.98368 
Q 574.287777 56.98368 574.287777 60.69888 
L 574.287777 132.03072 
Q 574.287777 135.74592 577.801332 135.74592 
z
" clip-path="url(#pa9228b4508)" style="fill: #f3d3d5; stroke: #1f2937; stroke-width: 0.9; stroke-linejoin: miter"/>
   </g>
   <g id="patch_6">
    <path d="M 91.52532 278.4096 
L 625.58568 278.4096 
L 625.58568 217.48032 
L 91.52532 217.48032 
z
" clip-path="url(#pa9228b4508)" style="fill: #f9fafb; stroke: #374151; stroke-width: 0.9; stroke-linejoin: miter"/>
   </g>
   <g id="text_1">
    <text style="font-weight: 700; font-size: 9px; font-family: 'DejaVu Sans'; text-anchor: middle" x="112.60665" y="81.723161" transform="rotate(-0 112.60665 81.723161)">Spatial discovery</text>
   </g>
   <g id="text_2">
    <text style="font-size: 7.3px; font-family: 'DejaVu Sans'" transform="translate(91.221072 101.627684)">GSE269875</text>
    <text style="font-size: 7.3px; font-family: 'DejaVu Sans'" transform="translate(87.27622 109.524744)">MM vs control</text>
    <text style="font-size: 7.3px; font-family: 'DejaVu Sans'" transform="translate(64.146056 117.421804)">plasma-secretory program</text>
   </g>
   <g id="text_3">
    <text style="font-weight: 700; font-size: 9px; font-family: 'DejaVu Sans'; text-anchor: middle" x="288.2844" y="81.758317" transform="rotate(-0 288.2844 81.758317)">scRNA localization</text>
   </g>
   <g id="text_4">
    <text style="font-size: 7.3px; font-family: 'DejaVu Sans'" transform="translate(266.898822 101.627684)">GSE271107</text>
    <text style="font-size: 7.3px; font-family: 'DejaVu Sans'" transform="translate(245.602212 109.524744)">plasma-cell localization</text>
    <text style="font-size: 7.3px; font-family: 'DejaVu Sans'" transform="translate(257.968869 117.421804)">TXNDC5 support</text>
   </g>
   <g id="text_5">
    <text style="font-weight: 700; font-size: 9px; font-family: 'DejaVu Sans'; text-anchor: middle" x="463.96215" y="81.758317" transform="rotate(-0 463.96215 81.758317)">Bulk validation</text>
   </g>
   <g id="text_6">
    <text style="font-size: 7.3px; font-family: 'DejaVu Sans'" transform="translate(424.608306 101.627684)">GSE24080 / GSE2658</text>
    <text style="font-size: 7.3px; font-family: 'DejaVu Sans'" transform="translate(426.255939 109.524744)">subtype-risk support</text>
    <text style="font-size: 7.3px; font-family: 'DejaVu Sans'" transform="translate(422.314509 117.421804)">POU2AF1/XBP1/JCHAIN</text>
   </g>
   <g id="text_7">
    <text style="font-weight: 700; font-size: 9px; font-family: 'DejaVu Sans'; text-anchor: middle" x="639.6399" y="81.758317" transform="rotate(-0 639.6399 81.758317)">Clinical/molecular validation</text>
   </g>
   <g id="text_8">
    <text style="font-size: 7.3px; font-family: 'DejaVu Sans'" transform="translate(590.558806 101.627684)">CoMMpass/GDC + NG2024</text>
    <text style="font-size: 7.3px; font-family: 'DejaVu Sans'" transform="translate(599.892541 109.524744)">762 baseline samples</text>
    <text style="font-size: 7.3px; font-family: 'DejaVu Sans'" transform="translate(588.884369 117.421804)">OS, ISS, 1q21, RNA subtype</text>
   </g>
   <g id="patch_7">
    <path d="M 177.846315 96.3648 
Q 195.173025 96.3648 211.269897 96.3648 
" style="fill: none; stroke: #111827; stroke-width: 1.1; stroke-linecap: round"/>
    <path d="M 208.069897 94.7648 
L 211.269897 96.3648 
L 208.069897 97.9648 
" style="fill: none; stroke: #111827; stroke-width: 1.1; stroke-linecap: round"/>
   </g>
   <g id="patch_8">
    <path d="M 353.524065 96.3648 
Q 370.850775 96.3648 386.947647 96.3648 
" style="fill: none; stroke: #111827; stroke-width: 1.1; stroke-linecap: round"/>
    <path d="M 383.747647 94.7648 
L 386.947647 96.3648 
L 383.747647 97.9648 
" style="fill: none; stroke: #111827; stroke-width: 1.1; stroke-linecap: round"/>
   </g>
   <g id="patch_9">
    <path d="M 529.201815 96.3648 
Q 546.528525 96.3648 562.625397 96.3648 
" style="fill: none; stroke: #111827; stroke-width: 1.1; stroke-linecap: round"/>
    <path d="M 559.425397 94.7648 
L 562.625397 96.3648 
L 559.425397 97.9648 
" style="fill: none; stroke: #111827; stroke-width: 1.1; stroke-linecap: round"/>
   </g>
   <g id="text_9">
    <text style="font-size: 9px; font-family: 'DejaVu Sans'" transform="translate(303.439641 239.199421)">Defensible current claim</text>
    <text style="font-size: 9px; font-family: 'DejaVu Sans'" transform="translate(191.093625 250.303241)">MM bone marrow plasma_secretory spatial program is single-cell localized</text>
    <text style="font-size: 9px; font-family: 'DejaVu Sans'" transform="translate(182.804484 261.657374)">and associated with OS / ISS / public molecular-risk annotations in CoMMpass.</text>
   </g>
   <g id="text_10">
    <text style="font-size: 7.5px; font-family: 'DejaVu Sans'; fill: #374151" transform="translate(241.579523 323.091472)">Claim boundary: R-ISS, PFS and treatment-response validation</text>
    <text style="font-size: 7.5px; font-family: 'DejaVu Sans'; fill: #374151" transform="translate(190.716047 331.489831)">require fuller MMRF/CoMMpass clinical files and are not claimed from the GDC open slice.</text>
   </g>
   <g id="text_11">
    <text style="font-weight: 700; font-size: 11px; font-family: 'DejaVu Sans'; text-anchor: start" x="14.22711" y="34.182406" transform="rotate(-0 14.22711 34.182406)">Fig. 1 | Cross-cohort study design and evidence chain</text>
   </g>
  </g>
 </g>
 <defs>
  <clipPath id="pa9228b4508">
   <rect x="7.2" y="7.2" width="702.711" height="371.52"/>
  </clipPath>
 </defs>
</svg>
